<?xml version="1.0" encoding="UTF-8" standalone="no" ?>
<!DOCTYPE svg PUBLIC "-//W3C//DTD SVG 1.1//EN" "http://www.w3.org/Graphics/SVG/1.1/DTD/svg11.dtd">
<svg xmlns="http://www.w3.org/2000/svg" xmlns:xlink="http://www.w3.org/1999/xlink" version="1.1" width="500" height="500" viewBox="0 0 500 500" xml:space="preserve">
<desc>Created with Fabric.js 4.6.0</desc>
<defs>
</defs>
<g transform="matrix(1 0 0 1 250 250)" id="wvKzkVxf1o38A2pUEqtDg"  >
<path style="stroke: none; stroke-width: 0; stroke-dasharray: none; stroke-linecap: butt; stroke-dashoffset: 0; stroke-linejoin: miter; stroke-miterlimit: 4; fill: rgb(0,0,0); fill-rule: evenodd; opacity: 1;" vector-effect="non-scaling-stroke"  transform=" translate(-200, -240)" d="M 367.24 13.61278 L 55.77600000000001 0 L 25.36400000000001 202.78771 L 10.440000000000012 220.49488 L 10.240000000000013 221.57008 C 9.884000000000013 223.50928 1.5080000000000133 269.25801 0.24000000000001265 283.74919 C -0.07999999999998736 285.46279 -0.07999999999998736 287.20519 0.24000000000001265 288.91878 C 1.4400000000000126 295.60517000000004 7.248000000000013 300.89956 14.744000000000012 302.13316000000003 L 5.0320000000000125 410.02500000000003 L 26.84000000000001 439.10336 L 53.25200000000001 448.50175 L 54.43600000000001 448.77535 C 150.984 460.42493 296.992 478.28091 303.496 479.73051 C 304.216 479.91771 304.964 480.00890999999996 305.716 479.99931 L 305.716 479.99931 C 317.008 479.99931 341.88800000000003 454.97215 344.284 450.84414999999996 C 346.996 446.15455999999995 380.19599999999997 197.41531999999995 399.74 49.55992999999995 L 400 47.625529999999955 z M 64.464 9.26879 L 354.316 21.94557 L 339.868 129.00701999999998 L 50.127999999999986 115.67263999999999 L 48.255999999999986 117.33823999999998 z M 34.948 206.2533 L 47.84 120.27821999999999 L 334.568 137.27499999999998 C 333.568 160.26216999999997 330.35999999999996 223.84047999999996 324.912 231.17005999999998 C 319.20399999999995 238.82124999999996 312.34 249.55882999999997 310.40799999999996 252.54922999999997 L 19.339999999999975 227.09006999999997 C 19.563999999999975 225.84206999999998 19.755999999999975 224.76206999999997 19.879999999999974 224.07086999999996 z M 304.908 302.23036 L 11.840000000000032 271.8272 C 13.776000000000032 258.84322000000003 16.768000000000033 241.60644000000002 18.580000000000034 231.46886 L 309.908 257.81602 z M 10.104 287.47039 C 9.952 286.58719 9.968 285.68479 10.155999999999999 284.80159000000003 C 10.259999999999998 283.61599 10.424 282.13279000000006 10.62 280.56320000000005 L 309.9 310.60636000000005 L 309.9 320.00475000000006 L 25.524 293.84959000000003 L 25.648 292.51519 L 19.356 293.43199000000004 C 17.240000000000002 293.73439 15.076 293.27839000000006 13.340000000000002 292.15999000000005 C 11.604000000000001 291.04159000000004 10.440000000000001 289.35679000000005 10.104000000000001 287.47520000000003 z M 33.444 431.87938 L 15.284000000000002 407.65861 L 24.82 301.64356 L 25.148 302.23395999999997 L 45.408 304.12516 L 50.128 413.2794 L 55.128 413.2794 L 55.128 305.04676 L 70.3 306.46276 L 75.112 416.19780000000003 L 80.112 416.68260000000004 L 80.112 307.37956 L 95.37599999999999 308.80996000000005 L 100.09199999999998 419.10660000000007 L 105.09199999999998 419.5914000000001 L 105.09199999999998 309.7171600000001 L 125.29199999999999 311.6035600000001 L 130.06799999999998 422.01540000000006 L 135.06799999999998 422.4954000000001 L 135.06799999999998 312.5251600000001 L 155.19599999999997 314.4067600000001 L 160.03999999999996 424.92420000000004 L 165.03999999999996 425.40900000000005 L 165.03999999999996 315.32356000000004 L 185.08799999999997 317.20516000000003 L 189.96799999999996 427.3482 L 194.96799999999996 427.833 L 194.96799999999996 318.13636 L 215.16399999999996 320.00836000000004 L 219.96399999999997 430.23300000000006 L 224.96399999999997 430.71780000000007 L 224.96399999999997 320.9347600000001 L 245.24399999999997 322.8307600000001 L 249.93999999999997 433.1562000000001 L 254.93999999999997 433.64100000000013 L 254.93999999999997 323.73796000000016 L 275.164 325.62436000000014 L 279.916 436.06980000000016 L 284.916 436.5498000000002 L 284.916 326.5363600000002 L 309.876 328.88356000000016 L 324.88 333.32835000000017 L 314.876 439.9338000000002 L 289.9 466.6025600000002 L 292.9 469.2713600000002 C 244.284 462.7721700000002 80.30399999999997 442.9626000000002 56.40799999999999 440.0778000000002 z M 335.212 447.11456 C 331.952 451.90975 311.656 470.18813 305.836 471.11453 C 304.52000000000004 470.86013 301.156 470.36573 296.2 469.69853 L 324.888 439.91937 L 334.888 328.86913000000004 L 324.888 324.42434000000003 L 315.22799999999995 307.24516000000006 L 319.89599999999996 253.35564000000005 L 318.83199999999994 253.25964000000005 C 324.1359999999999 246.90925000000004 333.11999999999995 235.18767000000005 334.87999999999994 226.70608000000004 C 337.0439999999999 216.23250000000004 342.88399999999996 154.86818000000005 344.4599999999999 137.84621000000004 L 344.8719999999999 137.84621000000004 L 363.8759999999999 23.733570000000043 L 389.5999999999999 50.40233000000004 C 375.30799999999994 158.52937000000003 338.6719999999999 432.87538000000006 335.2199999999999 447.12656000000004 z M 57.836 217.08809 L 302.208 235.94726 C 302.64000000000004 235.98566 303.072 236.00486 303.50800000000004 236.00486 C 310.052 236.00006000000002 315.63200000000006 231.79527000000002 316.71200000000005 226.05927 L 327.21600000000007 160.08817 C 327.25200000000007 159.81937 327.2800000000001 159.53617 327.29600000000005 159.28656999999998 C 327.65200000000004 153.38258 322.564 148.33778999999998 315.9200000000001 148.01138999999998 L 71.60000000000008 133.58261 C 64.58800000000008 132.97780999999998 58.24400000000008 137.2882 57.06000000000008 143.4562 L 46.55600000000008 205.00651 C 46.512000000000086 205.27051 46.488000000000085 205.53931 46.476000000000084 205.80811 C 46.12000000000008 211.7073 51.19600000000008 216.75209 57.832000000000086 217.09289 z M 62.02 144.19899 C 62.7 140.6086 66.2 137.97820000000002 70.3 137.97820000000002 C 70.576 137.97820000000002 70.852 137.97820000000002 71.216 138.02140000000003 L 315.63599999999997 152.45498000000003 C 317.51599999999996 152.54138000000003 319.28 153.29018000000002 320.53599999999994 154.53338000000002 C 321.7919999999999 155.78138 322.4359999999999 157.41818000000004 322.32399999999996 159.08857000000003 L 311.78799999999995 225.36687000000003 C 311.05199999999996 229.23566000000002 307.05999999999995 231.93326000000005 302.66799999999995 231.52526000000003 L 58.19599999999994 212.65169000000003 C 56.31599999999994 212.56529000000003 54.55199999999994 211.81649000000004 53.29599999999994 210.57329000000004 C 52.03999999999994 209.32529000000005 51.395999999999944 207.68849000000003 51.50399999999994 206.01810000000003 z M 174.888 276.8672 C 175.272 279.488 177.776 281.45119 180.74800000000002 281.46079000000003 L 181.15200000000002 281.46079000000003 L 284.79200000000003 290.71518000000003 C 287.88000000000005 291.40638 291.1 290.14398000000006 292.612 287.65758000000005 L 297.348 269.3216100000001 L 297.432 268.7984100000001 L 297.372 268.4096100000001 C 296.992 265.7888100000001 294.48400000000004 263.8256200000001 291.512 263.8208200000001 L 291.092 263.8208200000001 L 187.468 255.7808300000001 C 184.38 255.1376300000001 181.184 256.3952300000001 179.648 258.8624300000001 L 174.924 275.94081000000006 L 174.828 276.47361000000006 z M 184.176 260.77282 C 184.55599999999998 260.31202 185.164 260.03842000000003 185.808 260.04322 L 290.832 268.25601 L 291.228 268.25601 L 291.492 268.22241 C 291.87600000000003 268.22241 292.216 268.44321 292.336 268.76961 L 288.048 285.70399 C 287.676 286.15518999999995 287.084 286.42399 286.452 286.42879 L 181.428 276.9824 L 181.02 276.9824 L 180.74 277.01599999999996 C 180.364 277.01599999999996 180.02800000000002 276.80479999999994 179.9 276.48799999999994 z M 326.18 100.16386 L 284.084 98.62786 C 281.812 98.72866 279.984 100.32226 279.824 102.33825 L 278.06800000000004 115.73983 L 278.06800000000004 115.73983 C 277.84000000000003 116.80063 278.11600000000004 117.89502999999999 278.836 118.76383 C 279.55600000000004 119.63262999999999 280.652 120.19423 281.856 120.31423 L 323.82 122.84383 L 324.02 122.84383 C 326.28799999999995 122.74302999999999 328.116 121.14943 328.28 119.13824 L 330.03999999999996 104.77186 C 330.29999999999995 103.78306 330.092 102.74146 329.45599999999996 101.89666 C 328.688 100.93186 327.496 100.29826 326.176 100.14945999999999 z M 323.352 118.62943 L 283.02 116.22943 L 284.792 102.82305 L 325.09999999999997 104.28705 z M 239.832 117.77503 L 271.98 119.86303 L 272.40000000000003 119.76702999999999 C 274.38800000000003 119.37822999999999 275.79200000000003 117.78943 275.74 115.97984 L 277.392 104.00865999999999 C 277.948 102.19905999999999 276.904 100.30787 274.956 99.59267 L 242.5 97.78307 L 242.088 97.87427 C 240.09199999999998 98.26787 238.692 99.86627 238.75199999999998 101.68065999999999 L 237.368 113.33503999999999 C 236.796 115.15903999999999 237.856 117.06943 239.828 117.77982999999999 z M 243.752 101.93505 L 272.488 103.37505 L 270.74399999999997 115.71103 L 242.27599999999998 113.99743 z M 80.956 97.26946 L 80.956 97.26946 L 215.988 105.52064999999999 C 216.268 105.53984999999999 216.544 105.54945 216.812 105.54945 C 223.28400000000002 105.55905 228.8 101.37826 229.816 95.69986 L 238.32 38.57994 C 238.32 38.24394 238.35999999999999 37.90314 238.35999999999999 37.56714 C 238.24399999999997 32.00395 233.14399999999998 27.549550000000004 226.884 27.53515 L 226.884 27.53515 L 90.35199999999998 22.51916 C 83.57599999999998 22.15436 77.59599999999998 26.42155 76.53999999999998 32.38315 L 69.59999999999998 86.22946999999999 C 69.59999999999998 86.57027 69.55599999999998 86.92066999999999 69.55999999999997 87.26146999999999 C 69.68799999999997 92.79105999999999 74.73999999999998 97.22626 80.96399999999997 97.27425999999998 z M 74.576 86.66148 L 81.496 33.00716 C 82.14 29.503169999999997 85.55199999999999 26.93037 89.548 26.93517 L 226.924 31.97516 C 230.44400000000002 31.99916 233.304 34.50476 233.376 37.63435 C 233.376 37.83595 233.376 38.03275 233.376 38.114349999999995 L 224.872 95.03746999999998 C 224.22400000000002 98.54145999999999 220.816 101.10945999999998 216.82000000000002 101.10465999999998 L 80.98800000000003 92.82946999999999 C 77.47600000000003 92.81506999999999 74.61600000000003 90.31427 74.54800000000003 87.19427999999999 C 74.54000000000003 87.02148 74.54800000000003 86.84388 74.56800000000003 86.67107999999999 z M 302.408 91.24547 C 316.572 91.25986999999999 329.348 83.69028 334.78000000000003 72.0647 C 340.21200000000005 60.43912 337.22400000000005 47.05194 327.216 38.14795 C 317.208 29.24396 302.148 26.57517 289.06 31.389560000000003 C 275.972 36.203950000000006 267.44 47.551140000000004 267.44 60.136720000000004 C 267.44 77.3015 283.084 91.22628 302.404 91.25028 z M 302.408 33.50395 C 314.548 33.48955 325.5 39.97914 330.156 49.94393 C 334.812 59.90872 332.252 71.3807 323.672 79.01749000000001 C 315.09200000000004 86.64948000000001 302.184 88.93908 290.968 84.81108 C 279.752 80.68789000000001 272.43600000000004 70.95830000000001 272.43600000000004 60.172720000000005 C 272.43600000000004 45.46074 285.84400000000005 33.52796000000001 302.40400000000005 33.503960000000006 z M 302.408 82.36068 C 312.524 82.37028000000001 321.65200000000004 76.96549 325.53200000000004 68.6615 C 329.41200000000003 60.357510000000005 327.28000000000003 50.79593 320.13200000000006 44.43593 C 312.98400000000004 38.07594 302.22400000000005 36.170339999999996 292.8760000000001 39.60714 C 283.5280000000001 43.04394 277.4320000000001 51.15112 277.4320000000001 60.14151 C 277.4320000000001 72.40069 288.6040000000001 82.34628 302.40400000000005 82.36547999999999 z M 302.408 42.38874 C 313.456 42.38874 322.41200000000003 50.34713 322.41200000000003 60.16791 C 322.41200000000003 69.9887 313.456 77.94708 302.408 77.94708 C 291.36 77.94708 282.404 69.98869 282.404 60.16791 C 282.404 50.35192 291.356 42.39354 302.404 42.38874 z M 306.308 167.49816 L 159.27599999999998 158.74297 L 159.59199999999998 154.60058 L 306.624 163.35577 z M 303.752 179.76694 L 156.72 171.00695000000002 L 157.036 166.86456 L 304.068 175.61975 z M 301.024 192.03572 L 153.992 183.28053 L 154.308 179.13334 L 301.34000000000003 187.89333 z M 298.4 204.29971 L 151.36799999999997 195.54452 L 151.68399999999997 191.39733 L 298.716 200.15732 z M 213.34 52.51672 L 105.86800000000001 46.11353 L 106.096 43.08473 L 213.56400000000002 49.48312 z M 211.476 61.48311 L 104.008 55.084720000000004 L 104.23599999999999 52.05592000000001 L 211.69599999999997 58.45431000000001 z M 209.476 70.4447 L 102.004 64.04630999999999 L 102.232 61.017509999999994 L 209.704 67.4207 z M 207.56 79.41349 L 100.08800000000001 73.01509999999999 L 100.32400000000001 69.98629999999999 L 207.784 76.38468999999999 z" stroke-linecap="round" />
</g>
</svg>